<svg width="19" height="20" viewBox="0 0 19 20" fill="none" xmlns="http://www.w3.org/2000/svg">
<path d="M8.70703 7.62467H10.2904V6.04134H8.70703M9.4987 16.333C6.00745 16.333 3.16536 13.4909 3.16536 9.99967C3.16536 6.50842 6.00745 3.66634 9.4987 3.66634C12.9899 3.66634 15.832 6.50842 15.832 9.99967C15.832 13.4909 12.9899 16.333 9.4987 16.333ZM9.4987 2.08301C8.45907 2.08301 7.42961 2.28778 6.46912 2.68563C5.50863 3.08348 4.6359 3.66662 3.90077 4.40175C2.41611 5.88641 1.58203 7.90004 1.58203 9.99967C1.58203 12.0993 2.41611 14.1129 3.90077 15.5976C4.6359 16.3327 5.50863 16.9159 6.46912 17.3137C7.42961 17.7116 8.45907 17.9163 9.4987 17.9163C11.5983 17.9163 13.612 17.0823 15.0966 15.5976C16.5813 14.1129 17.4154 12.0993 17.4154 9.99967C17.4154 8.96004 17.2106 7.93059 16.8127 6.9701C16.4149 6.0096 15.8318 5.13688 15.0966 4.40175C14.3615 3.66662 13.4888 3.08348 12.5283 2.68563C11.5678 2.28778 10.5383 2.08301 9.4987 2.08301ZM8.70703 13.958H10.2904V9.20801H8.70703V13.958Z" fill="black"/>
</svg>
