<svg width="212" height="212" viewBox="0 0 212 212" fill="none" xmlns="http://www.w3.org/2000/svg">
    <circle cx="106.002" cy="106" r="73.9256" stroke="#F1F1F1" stroke-width="13.2768"/>
    <mask id="path-3-inside-1_606_1852" fill="white">
        <path d="M38.8083 135.203C35.1104 136.81 33.3867 141.13 35.322 144.668C41.0891 155.209 49.1577 164.356 58.963 171.407C70.7495 179.883 84.6073 185.017 99.0713 186.266C113.535 187.514 128.068 184.831 141.133 178.5C154.197 172.169 165.308 162.426 173.291 150.3C181.274 138.174 185.832 124.116 186.483 109.613C187.134 95.1094 183.854 80.6998 176.989 67.9074C170.125 55.1149 159.931 44.4151 147.486 36.9391C137.133 30.7198 125.542 26.924 113.58 25.7935C109.566 25.4142 106.278 28.7053 106.264 32.7373V32.7373C106.249 36.7693 109.516 40.008 113.522 40.4678C122.85 41.5384 131.871 44.5919 139.968 49.4557C150.157 55.5767 158.503 64.3373 164.123 74.8113C169.744 85.2852 172.429 97.0833 171.896 108.958C171.363 120.833 167.632 132.343 161.096 142.271C154.559 152.199 145.462 160.177 134.765 165.36C124.068 170.544 112.17 172.741 100.327 171.719C88.4845 170.696 77.1382 166.493 67.4879 159.553C59.8198 154.038 53.4489 146.959 48.7782 138.814C46.7724 135.316 42.5062 133.596 38.8083 135.203V135.203Z"/>
    </mask>
    <path d="M38.8083 135.203C35.1104 136.81 33.3867 141.13 35.322 144.668C41.0891 155.209 49.1577 164.356 58.963 171.407C70.7495 179.883 84.6073 185.017 99.0713 186.266C113.535 187.514 128.068 184.831 141.133 178.5C154.197 172.169 165.308 162.426 173.291 150.3C181.274 138.174 185.832 124.116 186.483 109.613C187.134 95.1094 183.854 80.6998 176.989 67.9074C170.125 55.1149 159.931 44.4151 147.486 36.9391C137.133 30.7198 125.542 26.924 113.58 25.7935C109.566 25.4142 106.278 28.7053 106.264 32.7373V32.7373C106.249 36.7693 109.516 40.008 113.522 40.4678C122.85 41.5384 131.871 44.5919 139.968 49.4557C150.157 55.5767 158.503 64.3373 164.123 74.8113C169.744 85.2852 172.429 97.0833 171.896 108.958C171.363 120.833 167.632 132.343 161.096 142.271C154.559 152.199 145.462 160.177 134.765 165.36C124.068 170.544 112.17 172.741 100.327 171.719C88.4845 170.696 77.1382 166.493 67.4879 159.553C59.8198 154.038 53.4489 146.959 48.7782 138.814C46.7724 135.316 42.5062 133.596 38.8083 135.203V135.203Z" stroke="#FF4931" stroke-width="39.8305" mask="url(#path-3-inside-1_606_1852)"/>
</svg>
